<svg width="48" height="48" viewBox="0 0 48 48" fill="none" xmlns="http://www.w3.org/2000/svg">
<path d="M35.6295 28.7786C34.8094 27.9259 33.8202 27.47 32.7718 27.47C31.7319 27.47 30.7343 27.9175 29.8804 28.7701L27.2087 31.4295C26.9889 31.3113 26.7691 31.2015 26.5577 31.0918C26.2534 30.9398 25.9659 30.7963 25.7207 30.6443C23.2182 29.0572 20.9439 26.9888 18.7626 24.3126C17.7058 22.9787 16.9956 21.8559 16.4799 20.7162C17.1732 20.083 17.8157 19.4245 18.4414 18.7914C18.6781 18.555 18.9148 18.3102 19.1515 18.0738C20.927 16.3009 20.927 14.0046 19.1515 12.2317L16.8435 9.92697C16.5814 9.66526 16.3108 9.39511 16.0572 9.12495C15.5499 8.60153 15.0173 8.06123 14.4677 7.55469C13.6476 6.74423 12.6669 6.31367 11.6354 6.31367C10.604 6.31367 9.60635 6.74423 8.76089 7.55469L8.74398 7.57157L5.86943 10.4673C4.78725 11.5479 4.17006 12.8649 4.03479 14.3929C3.83188 16.8581 4.55897 19.1544 5.11697 20.6571C6.48661 24.3464 8.53262 27.7655 11.5847 31.4295C15.2878 35.8448 19.7434 39.3314 24.833 41.7881C26.7776 42.7083 29.3731 43.7974 32.273 43.9831C32.4506 43.9916 32.6366 44 32.8057 44C34.7587 44 36.3989 43.2993 37.6839 41.9063C37.6924 41.8894 37.7093 41.881 37.7178 41.8641C38.1574 41.3322 38.6647 40.851 39.1973 40.3361C39.5609 39.9899 39.9329 39.6269 40.2964 39.247C41.1334 38.3774 41.573 37.3644 41.573 36.326C41.573 35.2791 41.125 34.2745 40.271 33.4303L35.6295 28.7786ZM38.6562 37.6683C38.6478 37.6683 38.6478 37.6767 38.6562 37.6683C38.3265 38.0229 37.9883 38.3437 37.6248 38.6983C37.0752 39.2217 36.5172 39.7704 35.993 40.3867C35.1391 41.2985 34.133 41.729 32.8141 41.729C32.6873 41.729 32.552 41.729 32.4252 41.7206C29.9142 41.5602 27.5807 40.5809 25.8307 39.7451C21.0454 37.4319 16.8435 34.1479 13.3517 29.9858C10.4687 26.516 8.54107 23.308 7.26443 19.8635C6.47816 17.7614 6.1907 16.1236 6.31752 14.5787C6.40207 13.5909 6.78252 12.772 7.48425 12.0713L10.3673 9.19249C10.7815 8.80415 11.2212 8.59309 11.6524 8.59309C12.185 8.59309 12.6162 8.9139 12.8867 9.18405L12.9121 9.20938C13.4278 9.69059 13.9182 10.1887 14.4339 10.7205C14.696 10.9907 14.9665 11.2608 15.2371 11.5394L17.5452 13.8442C18.4414 14.7391 18.4414 15.5664 17.5452 16.4613C17.3 16.7061 17.0633 16.9509 16.8181 17.1873C16.1079 17.9134 15.4315 18.5887 14.696 19.2472C14.6791 19.2641 14.6622 19.2726 14.6537 19.2895C13.9266 20.0155 14.0619 20.7246 14.2141 21.2059L14.2394 21.2818C14.8397 22.7339 15.6852 24.1016 16.9703 25.7309L16.9787 25.7394C19.3122 28.6097 21.7725 30.8469 24.4864 32.5607C24.833 32.7802 25.1881 32.9575 25.5263 33.1263C25.8307 33.2783 26.1181 33.4218 26.3633 33.5738C26.3971 33.5907 26.4309 33.616 26.4647 33.6329C26.7522 33.7764 27.0227 33.8439 27.3017 33.8439C28.0035 33.8439 28.4431 33.4049 28.5868 33.2614L31.4783 30.3742C31.7658 30.0871 32.2223 29.741 32.7549 29.741C33.2791 29.741 33.7103 30.0702 33.9724 30.3573L33.9893 30.3742L38.6478 35.0259C39.5186 35.887 39.5186 36.7734 38.6562 37.6683ZM25.6193 13.5149C27.8344 13.8864 29.8466 14.9332 31.4529 16.5373C33.0593 18.1413 34.0992 20.1506 34.4797 22.3624C34.5727 22.9196 35.0546 23.308 35.6041 23.308C35.6718 23.308 35.7309 23.2995 35.7986 23.2911C36.4242 23.1898 36.8385 22.5988 36.737 21.9741C36.2805 19.2979 35.0123 16.8581 33.0762 14.9248C31.1401 12.9915 28.6968 11.7252 26.0167 11.2693C25.391 11.168 24.8076 11.5817 24.6977 12.1979C24.5878 12.8142 24.9937 13.4136 25.6193 13.5149ZM43.9826 21.6448C43.2301 17.238 41.1503 13.2279 37.9545 10.0367C34.7587 6.84554 30.7428 4.76874 26.3295 4.01738C25.7123 3.90763 25.1289 4.32974 25.019 4.94603C24.9176 5.57075 25.3318 6.15327 25.9575 6.26302C29.8973 6.92996 33.4905 8.7957 36.3481 11.6408C39.2058 14.4942 41.0658 18.0822 41.7337 22.0163C41.8267 22.5735 42.3086 22.9618 42.8581 22.9618C42.9258 22.9618 42.985 22.9534 43.0526 22.945C43.6698 22.8521 44.0925 22.2611 43.9826 21.6448Z" fill="#005BAB"/>
</svg>
