<svg width="33" height="33" viewBox="0 0 33 33" fill="none" xmlns="http://www.w3.org/2000/svg">
<path d="M6.49957 2.05176C7.38274 2.0518 8.21535 2.42115 8.90289 3.10156H8.90192C9.12201 3.30486 9.33851 3.51459 9.55035 3.72559L10.1754 4.36133L10.1773 4.36328C10.3773 4.57665 10.5915 4.79119 10.8013 5.00098L12.6451 6.84473C13.3851 7.58484 13.7671 8.44716 13.7672 9.32227C13.7672 10.1975 13.3853 11.0605 12.6451 11.8008C12.5513 11.8946 12.4575 11.9906 12.3629 12.0869C12.2687 12.1827 12.1727 12.2781 12.0777 12.373C11.6119 12.8452 11.129 13.3396 10.6119 13.8193C11.01 14.6683 11.5521 15.5179 12.3482 16.5244L12.6734 16.917C14.3045 18.8538 16.0029 20.368 17.857 21.5459L18.1607 21.7178C18.2699 21.7752 18.3867 21.8332 18.5093 21.8945L18.5123 21.8965C18.6361 21.9609 18.7685 22.0288 18.9019 22.0986L20.9332 20.0752C21.6464 19.362 22.4922 18.9766 23.3843 18.9766C24.2827 18.9767 25.1217 19.3685 25.8082 20.082L29.5152 23.8027L29.6451 23.9365C30.2762 24.6164 30.6147 25.4187 30.6148 26.2607C30.6148 27.1507 30.237 28.0086 29.5386 28.7354C29.2452 29.0424 28.9464 29.3363 28.6548 29.6143C28.2269 30.0286 27.831 30.4048 27.4888 30.8193C27.486 30.823 27.4845 30.8271 27.482 30.8301C27.4802 30.8322 27.4779 30.834 27.4761 30.8359L27.4742 30.8398L27.4547 30.8613C26.3888 32.0182 25.0243 32.6006 23.4107 32.6006C23.2703 32.6006 23.1172 32.5936 22.9761 32.5869H22.9722C20.6163 32.4357 18.5146 31.5499 16.9566 30.8115L16.9547 30.8105C12.863 28.8326 9.28104 26.0259 6.30524 22.4727V22.4717C3.85552 19.5266 2.2084 16.7721 1.10504 13.7959C0.656991 12.5875 0.0622597 10.7158 0.228088 8.69824V8.69727C0.340283 7.42807 0.853921 6.33027 1.75153 5.43262L4.04742 3.11719L4.065 3.09961C4.7721 2.42093 5.617 2.05176 6.49957 2.05176ZM27.9595 27.1787C27.9531 27.1837 27.9479 27.1875 27.9449 27.1904C28.2645 26.8566 28.4016 26.5501 28.4009 26.2686C28.4003 25.9865 28.2618 25.6848 27.9371 25.3633L24.1949 21.6211C24.0003 21.4077 23.706 21.1934 23.3707 21.1934C23.0282 21.1934 22.7124 21.4209 22.4918 21.6416L20.1822 23.9512C20.0637 24.0697 19.6615 24.4756 19.0142 24.4756C18.7563 24.4756 18.51 24.412 18.2564 24.2852C18.2329 24.2734 18.2106 24.2603 18.1988 24.2529C18.1839 24.2436 18.1788 24.24 18.1754 24.2383L18.1666 24.2344L18.1588 24.2295C17.9723 24.1138 17.7516 24.0025 17.5064 23.8799C17.2375 23.7454 16.9445 23.5998 16.6578 23.418V23.417C14.4719 22.0345 12.493 20.2328 10.6197 17.9268L10.6109 17.918L10.6041 17.9092C9.56992 16.5961 8.88364 15.4853 8.39508 14.3018L8.38922 14.2891V14.2881L8.36969 14.2285L8.36871 14.2256C8.30501 14.0239 8.23784 13.7535 8.27301 13.4492C8.3086 13.1417 8.44585 12.8153 8.76129 12.4971C8.77516 12.4802 8.78778 12.4686 8.79449 12.4629L8.80621 12.4541L8.8111 12.4492L9.23981 12.0547C9.66316 11.6562 10.0716 11.2457 10.4966 10.8105L10.5005 10.8066C10.6949 10.619 10.8793 10.4269 11.0787 10.2275C11.4176 9.88863 11.5572 9.59222 11.5572 9.32227C11.5571 9.05237 11.4175 8.75581 11.0787 8.41699L9.23297 6.57129C9.12553 6.46049 9.01801 6.35118 8.91071 6.24219C8.8036 6.13339 8.69669 6.02473 8.59137 5.91602C8.17977 5.49092 7.79051 5.09523 7.38239 4.71387L7.35797 4.68945C7.15434 4.48583 6.85835 4.27454 6.51324 4.27441C6.23632 4.27441 5.93159 4.41112 5.6236 4.7002L3.32477 6.99902C2.86365 7.46016 2.589 7.98543 2.48492 8.60742L2.45074 8.87988C2.36493 9.92724 2.52361 11.0376 2.98102 12.4141L3.19489 13.0215C4.2052 15.7513 5.7318 18.2988 8.02301 21.0605C10.7946 24.369 14.1297 26.9784 17.9263 28.8164H17.9254C19.3189 29.4829 21.1541 30.2512 23.1197 30.377H23.1207C23.214 30.3832 23.3151 30.3838 23.4175 30.3838C24.4182 30.3838 25.1684 30.0603 25.8111 29.373C26.2345 28.8754 26.6832 28.4329 27.1207 28.0156C27.4066 27.7364 27.6655 27.4897 27.9185 27.2188C27.9192 27.2178 27.9198 27.2167 27.9205 27.2158C27.9264 27.208 27.9347 27.2025 27.941 27.1963L27.9429 27.1934L27.9439 27.1943C27.9495 27.189 27.9539 27.183 27.9595 27.1787ZM28.0845 27.1387V27.3291L28.0865 27.332C28.1315 27.2852 28.1734 27.2382 28.2125 27.1914C28.189 27.1702 28.1639 27.1552 28.1392 27.1475C28.1195 27.1413 28.1011 27.139 28.0845 27.1387ZM28.0103 27.1504C28.0087 27.151 28.007 27.1517 28.0054 27.1523C28.0078 27.1514 28.0099 27.1503 28.0123 27.1494L28.0103 27.1504ZM16.7369 6.92383C16.8439 6.32261 17.4131 5.92012 18.0201 6.01855H18.0211C20.2032 6.39028 22.1925 7.42343 23.7681 8.99902C25.2452 10.4761 26.2459 12.3166 26.6714 14.3389L26.7486 14.7461V14.748C26.8466 15.3535 26.4454 15.931 25.8336 16.0303L25.8267 16.0322V16.0312C25.7774 16.0374 25.7154 16.0469 25.6461 16.0469C25.113 16.0467 24.6425 15.6687 24.5513 15.124L24.4898 14.8018C24.1514 13.2004 23.3647 11.747 22.189 10.5713C20.9347 9.31698 19.3647 8.50011 17.6373 8.20996V8.20898C17.0235 8.10885 16.6305 7.52193 16.7369 6.92383ZM16.9937 1.12207C17.1 0.525258 17.6651 0.111414 18.2701 0.217773L18.2711 0.216797C21.8376 0.824888 25.0836 2.50597 27.6656 5.08789C30.2473 7.66963 31.9284 10.9153 32.5367 14.4814L32.5504 14.5938C32.5914 15.1545 32.1938 15.6684 31.6265 15.7539L31.6216 15.7549C31.5723 15.761 31.5103 15.7695 31.441 15.7695C30.9076 15.7694 30.4363 15.3917 30.3453 14.8467V14.8457C29.8185 11.7402 28.3526 8.90773 26.0992 6.6543C23.8452 4.40719 21.0124 2.93468 17.9068 2.4082H17.9058C17.2983 2.30147 16.8951 1.73283 16.9937 1.125V1.12207Z" fill="#005BAB" stroke="#005BAB" stroke-width="0.4"/>
</svg>
