<svg width="48" height="48" viewBox="0 0 48 48" fill="none" xmlns="http://www.w3.org/2000/svg">
<g clip-path="url(#clip0_79_915)">
<path d="M30.9445 6.14258H22.012C21.4645 6.14258 21.022 6.58508 21.022 7.13258C21.022 7.68008 21.4645 8.12258 22.012 8.12258H30.9445C31.492 8.12258 31.9345 7.68008 31.9345 7.13258C31.9345 6.58508 31.492 6.14258 30.9445 6.14258ZM30.9445 12.0976H7.13203C6.58453 12.0976 6.14203 12.5401 6.14203 13.0876C6.14203 13.6351 6.58453 14.0776 7.13203 14.0776H30.9445C31.492 14.0776 31.9345 13.6351 31.9345 13.0876C31.9345 12.5401 31.492 12.0976 30.9445 12.0976ZM30.9445 18.0451H7.13203C6.58453 18.0451 6.14203 18.4876 6.14203 19.0351C6.14203 19.5826 6.58453 20.0251 7.13203 20.0251H30.9445C31.492 20.0251 31.9345 19.5826 31.9345 19.0351C31.9345 18.4876 31.492 18.0451 30.9445 18.0451ZM31.9345 24.9901C31.9345 24.4426 31.492 24.0001 30.9445 24.0001H7.13203C6.58453 24.0001 6.14203 24.4426 6.14203 24.9901C6.14203 25.5376 6.58453 25.9801 7.13203 25.9801H30.9445C31.492 25.9876 31.9345 25.5376 31.9345 24.9901ZM13.372 35.2051L8.12203 40.4551L6.83953 39.1726C6.44953 38.7826 5.82703 38.7826 5.43703 39.1726C5.04703 39.5626 5.04703 40.1851 5.43703 40.5751L7.42453 42.5626C7.61953 42.7576 8.21203 43.1176 8.82703 42.5626L14.782 36.6076C15.172 36.2176 15.172 35.5951 14.782 35.2051C14.392 34.8151 13.762 34.8151 13.372 35.2051ZM47.5195 23.5426L43.312 19.3351C42.922 18.9451 42.2995 18.9451 41.9095 19.3351L23.662 37.5676C23.512 37.7176 23.4145 37.9201 23.3845 38.1301L22.6795 43.0426C22.6345 43.3501 22.7545 44.0776 23.662 44.1751C23.707 44.1826 28.717 43.4626 28.717 43.4626C28.927 43.4326 29.1295 43.3351 29.2795 43.1851L47.5195 24.9451C48.082 24.2401 47.707 23.7226 47.5195 23.5426ZM28.1095 41.5501L24.832 42.0151L25.297 38.7376L38.3995 25.6426L41.2045 28.4476L28.1095 41.5501ZM42.607 27.0451L39.802 24.2401L42.607 21.4351L45.412 24.2401L42.607 27.0451Z" fill="#005BAB"/>
<path d="M36.8925 38.13C36.345 38.13 35.9025 38.5725 35.9025 39.12V42.8475C35.9025 44.49 34.5675 45.825 32.925 45.825H5.145C3.5025 45.825 2.1675 44.49 2.1675 42.8475V5.145C2.1675 3.5025 3.5025 2.1675 5.145 2.1675H32.925C34.5675 2.1675 35.9025 3.5025 35.9025 5.145V20.7825C35.9025 21.33 36.345 21.7725 36.8925 21.7725C37.44 21.7725 37.8825 21.33 37.8825 20.7825V5.145C37.8825 2.4075 35.655 0.1875 32.925 0.1875H5.145C2.4075 0.1875 0.1875 2.415 0.1875 5.145V42.8475C0.1875 45.585 2.415 47.805 5.145 47.805H32.925C35.6625 47.805 37.8825 45.5775 37.8825 42.8475V39.12C37.89 38.5725 37.44 38.13 36.8925 38.13Z" fill="#005BAB"/>
</g>
<defs>
<clipPath id="clip0_79_915">
<rect width="48" height="48" fill="white"/>
</clipPath>
</defs>
</svg>
