<svg width="48" height="48" viewBox="0 0 48 48" fill="none" xmlns="http://www.w3.org/2000/svg">
<path d="M44.3418 0.642578C44.5687 0.642578 44.7868 0.733128 44.9473 0.893555C45.1076 1.05389 45.1972 1.27134 45.1973 1.49805V41.3408H45.8545C46.0814 41.3408 46.2995 41.4314 46.46 41.5918C46.6203 41.7521 46.7099 41.9696 46.71 42.1963V46.502C46.71 46.9785 46.3218 47.3574 45.8545 47.3574H2.14551C1.66911 47.3572 1.29004 46.9691 1.29004 46.502V42.1963C1.29012 41.9695 1.38068 41.7522 1.54102 41.5918C1.70136 41.4315 1.91876 41.3409 2.14551 41.3408H2.7959V1.49805C2.796 1.2713 2.88653 1.05389 3.04688 0.893555C3.20728 0.733252 3.42458 0.642578 3.65137 0.642578H44.3418ZM3.00098 45.6465H45V43.0449H3.00098V45.6465ZM4.50684 41.3408H6.62109V5.32422C6.62109 5.09734 6.71164 4.87918 6.87207 4.71875C7.03243 4.5585 7.24986 4.46881 7.47656 4.46875H40.5244C40.7511 4.46884 40.9686 4.55849 41.1289 4.71875C41.2893 4.87918 41.3799 5.09734 41.3799 5.32422V41.3408H43.4941V2.35352H4.50684V41.3408ZM24.8486 41.3408H39.6689V6.17188H24.8486V41.3408ZM8.3252 41.3408H23.1445V24.6084H8.3252V41.3408ZM8.3252 22.9053H23.1445V6.17188H8.3252V22.9053Z" fill="#005BAB" stroke="#005BAB" stroke-width="0.3"/>
</svg>
