<svg width="48" height="48" viewBox="0 0 48 48" fill="none" xmlns="http://www.w3.org/2000/svg">
<g clip-path="url(#clip0_79_936)">
<mask id="path-1-outside-1_79_936" maskUnits="userSpaceOnUse" x="-1" y="8.15186" width="50" height="31" fill="black">
<rect fill="white" x="-1" y="8.15186" width="50" height="31"/>
<path fill-rule="evenodd" clip-rule="evenodd" d="M16.0174 26.3852H2.93147C2.73256 26.3852 2.54179 26.3062 2.40114 26.1655C2.26049 26.0248 2.18147 25.8341 2.18147 25.6352C2.18147 25.4363 2.26049 25.2455 2.40114 25.1048C2.54179 24.9642 2.73256 24.8852 2.93147 24.8852H16.0174C16.2163 24.8852 16.4071 24.9642 16.5477 25.1048C16.6884 25.2455 16.7674 25.4363 16.7674 25.6352C16.7674 25.8341 16.6884 26.0248 16.5477 26.1655C16.4071 26.3062 16.2163 26.3852 16.0174 26.3852ZM14.5859 21.3485C14.5859 21.1496 14.5069 20.9589 14.3662 20.8182C14.2256 20.6776 14.0348 20.5985 13.8359 20.5985H0.75C0.551088 20.5985 0.360322 20.6776 0.21967 20.8182C0.0790176 20.9589 0 21.1496 0 21.3485C0 21.5475 0.0790176 21.7382 0.21967 21.8789C0.360322 22.0195 0.551088 22.0985 0.75 22.0985H13.8359C14.0348 22.0985 14.2256 22.0195 14.3662 21.8789C14.5069 21.7382 14.5859 21.5475 14.5859 21.3485ZM4.33791 17.8118H17.4237C17.6226 17.8118 17.8134 17.7328 17.954 17.5922C18.0947 17.4515 18.1737 17.2607 18.1737 17.0618C18.1737 16.8629 18.0947 16.6721 17.954 16.5315C17.8134 16.3908 17.6226 16.3118 17.4237 16.3118H4.33791C4.13899 16.3118 3.94823 16.3908 3.80758 16.5315C3.66692 16.6721 3.58791 16.8629 3.58791 17.0618C3.58791 17.2607 3.66692 17.4515 3.80758 17.5922C3.94823 17.7328 4.13899 17.8118 4.33791 17.8118ZM48 24.3966V33.6799C48 34.7578 47.1231 35.6348 46.045 35.6348H44.1035C43.7518 37.4627 42.1413 38.848 40.2124 38.848C38.2835 38.848 36.6729 37.4627 36.3213 35.6348H20.9911C20.6394 37.4627 19.0289 38.848 17.1 38.848C15.1711 38.848 13.5606 37.4627 13.2089 35.6348H9.01284C7.71347 35.6348 6.65625 34.5777 6.65625 33.2782V28.679C6.65625 28.4801 6.73527 28.2894 6.87592 28.1487C7.01657 28.0081 7.20734 27.929 7.40625 27.929C7.60516 27.929 7.79593 28.0081 7.93658 28.1487C8.07723 28.2894 8.15625 28.4801 8.15625 28.679V33.2782C8.15625 33.7505 8.54053 34.1348 9.01284 34.1348H13.2089C13.5605 32.3071 15.1711 30.9217 17.1 30.9217C19.0289 30.9217 20.6394 32.3071 20.9911 34.1348H32.4247V11.5084C32.4247 11.0361 32.0404 10.6519 31.5681 10.6519H9.01284C8.54053 10.6519 8.15625 11.0361 8.15625 11.5084V14.0179C8.15625 14.2168 8.07723 14.4075 7.93658 14.5482C7.79593 14.6888 7.60516 14.7679 7.40625 14.7679C7.20734 14.7679 7.01657 14.6888 6.87592 14.5482C6.73527 14.4075 6.65625 14.2168 6.65625 14.0179V11.5084C6.65625 10.2091 7.71338 9.15186 9.01284 9.15186H31.5681C32.8674 9.15186 33.9247 10.209 33.9247 11.5084V14.3075H42.0527C43.2082 14.3075 44.191 14.9317 44.6176 15.9365L47.8042 23.4398C47.9378 23.7546 48 24.0586 48 24.3966ZM19.5632 34.8848C19.5632 33.5267 18.4582 32.4217 17.1 32.4217C15.7418 32.4217 14.6368 33.5267 14.6368 34.8848C14.6368 36.243 15.7418 37.348 17.1 37.348C18.4582 37.348 19.5632 36.2431 19.5632 34.8848ZM42.6756 34.8848C42.6756 33.5267 41.5705 32.4217 40.2124 32.4217C38.8542 32.4217 37.7492 33.5267 37.7492 34.8848C37.7492 36.243 38.8542 37.348 40.2124 37.348C41.5705 37.348 42.6756 36.2431 42.6756 34.8848ZM46.5 33.6799V32.7755H45.2113C44.4915 32.7755 43.9058 32.1899 43.9058 31.4701V29.1371C43.9058 28.4173 44.4915 27.8316 45.2113 27.8316H46.5V24.3966C46.5 24.2596 46.4785 24.1556 46.4236 24.026L43.237 16.5229C43.0496 16.0817 42.5959 15.8075 42.0527 15.8075H33.9247V34.1348H36.3213C36.6728 32.3071 38.2835 30.9217 40.2124 30.9217C42.1413 30.9217 43.7518 32.3071 44.1035 34.1348H46.045C46.1656 34.1347 46.2813 34.0867 46.3666 34.0015C46.4519 33.9162 46.4999 33.8006 46.5 33.6799ZM45.4058 29.3316V31.2755H46.5V29.3316H45.4058ZM44.4579 24.5469H35.6442C35.4453 24.5469 35.2545 24.4679 35.1139 24.3272C34.9732 24.1866 34.8942 23.9958 34.8942 23.7969V17.5272C34.8942 17.3283 34.9732 17.1375 35.1139 16.9969C35.2545 16.8562 35.4453 16.7772 35.6442 16.7772H41.7952C41.9424 16.7772 42.0863 16.8205 42.209 16.9018C42.3318 16.983 42.4279 17.0986 42.4854 17.234L45.1481 23.5038C45.1965 23.6178 45.216 23.742 45.2047 23.8654C45.1933 23.9888 45.1516 24.1074 45.0833 24.2108C45.0149 24.3141 44.922 24.3989 44.8129 24.4575C44.7038 24.5162 44.5818 24.5469 44.4579 24.5469ZM43.3246 23.0469L41.2989 18.2772H36.3943V23.0469H43.3246ZM17.0999 33.7901C16.4948 33.7901 16.0052 34.2799 16.0052 34.8848C16.0052 35.4898 16.4949 35.9795 17.0999 35.9795C17.705 35.9795 18.1947 35.4899 18.1947 34.8848C18.1947 34.2798 17.7051 33.7901 17.0999 33.7901ZM40.2123 33.7901C39.6072 33.7901 39.1176 34.2799 39.1176 34.8848C39.1176 35.4898 39.6072 35.9795 40.2123 35.9795C40.8173 35.9795 41.3071 35.4899 41.3071 34.8848C41.3071 34.2798 40.8173 33.7901 40.2123 33.7901Z"/>
</mask>
<path fill-rule="evenodd" clip-rule="evenodd" d="M16.0174 26.3852H2.93147C2.73256 26.3852 2.54179 26.3062 2.40114 26.1655C2.26049 26.0248 2.18147 25.8341 2.18147 25.6352C2.18147 25.4363 2.26049 25.2455 2.40114 25.1048C2.54179 24.9642 2.73256 24.8852 2.93147 24.8852H16.0174C16.2163 24.8852 16.4071 24.9642 16.5477 25.1048C16.6884 25.2455 16.7674 25.4363 16.7674 25.6352C16.7674 25.8341 16.6884 26.0248 16.5477 26.1655C16.4071 26.3062 16.2163 26.3852 16.0174 26.3852ZM14.5859 21.3485C14.5859 21.1496 14.5069 20.9589 14.3662 20.8182C14.2256 20.6776 14.0348 20.5985 13.8359 20.5985H0.75C0.551088 20.5985 0.360322 20.6776 0.21967 20.8182C0.0790176 20.9589 0 21.1496 0 21.3485C0 21.5475 0.0790176 21.7382 0.21967 21.8789C0.360322 22.0195 0.551088 22.0985 0.75 22.0985H13.8359C14.0348 22.0985 14.2256 22.0195 14.3662 21.8789C14.5069 21.7382 14.5859 21.5475 14.5859 21.3485ZM4.33791 17.8118H17.4237C17.6226 17.8118 17.8134 17.7328 17.954 17.5922C18.0947 17.4515 18.1737 17.2607 18.1737 17.0618C18.1737 16.8629 18.0947 16.6721 17.954 16.5315C17.8134 16.3908 17.6226 16.3118 17.4237 16.3118H4.33791C4.13899 16.3118 3.94823 16.3908 3.80758 16.5315C3.66692 16.6721 3.58791 16.8629 3.58791 17.0618C3.58791 17.2607 3.66692 17.4515 3.80758 17.5922C3.94823 17.7328 4.13899 17.8118 4.33791 17.8118ZM48 24.3966V33.6799C48 34.7578 47.1231 35.6348 46.045 35.6348H44.1035C43.7518 37.4627 42.1413 38.848 40.2124 38.848C38.2835 38.848 36.6729 37.4627 36.3213 35.6348H20.9911C20.6394 37.4627 19.0289 38.848 17.1 38.848C15.1711 38.848 13.5606 37.4627 13.2089 35.6348H9.01284C7.71347 35.6348 6.65625 34.5777 6.65625 33.2782V28.679C6.65625 28.4801 6.73527 28.2894 6.87592 28.1487C7.01657 28.0081 7.20734 27.929 7.40625 27.929C7.60516 27.929 7.79593 28.0081 7.93658 28.1487C8.07723 28.2894 8.15625 28.4801 8.15625 28.679V33.2782C8.15625 33.7505 8.54053 34.1348 9.01284 34.1348H13.2089C13.5605 32.3071 15.1711 30.9217 17.1 30.9217C19.0289 30.9217 20.6394 32.3071 20.9911 34.1348H32.4247V11.5084C32.4247 11.0361 32.0404 10.6519 31.5681 10.6519H9.01284C8.54053 10.6519 8.15625 11.0361 8.15625 11.5084V14.0179C8.15625 14.2168 8.07723 14.4075 7.93658 14.5482C7.79593 14.6888 7.60516 14.7679 7.40625 14.7679C7.20734 14.7679 7.01657 14.6888 6.87592 14.5482C6.73527 14.4075 6.65625 14.2168 6.65625 14.0179V11.5084C6.65625 10.2091 7.71338 9.15186 9.01284 9.15186H31.5681C32.8674 9.15186 33.9247 10.209 33.9247 11.5084V14.3075H42.0527C43.2082 14.3075 44.191 14.9317 44.6176 15.9365L47.8042 23.4398C47.9378 23.7546 48 24.0586 48 24.3966ZM19.5632 34.8848C19.5632 33.5267 18.4582 32.4217 17.1 32.4217C15.7418 32.4217 14.6368 33.5267 14.6368 34.8848C14.6368 36.243 15.7418 37.348 17.1 37.348C18.4582 37.348 19.5632 36.2431 19.5632 34.8848ZM42.6756 34.8848C42.6756 33.5267 41.5705 32.4217 40.2124 32.4217C38.8542 32.4217 37.7492 33.5267 37.7492 34.8848C37.7492 36.243 38.8542 37.348 40.2124 37.348C41.5705 37.348 42.6756 36.2431 42.6756 34.8848ZM46.5 33.6799V32.7755H45.2113C44.4915 32.7755 43.9058 32.1899 43.9058 31.4701V29.1371C43.9058 28.4173 44.4915 27.8316 45.2113 27.8316H46.5V24.3966C46.5 24.2596 46.4785 24.1556 46.4236 24.026L43.237 16.5229C43.0496 16.0817 42.5959 15.8075 42.0527 15.8075H33.9247V34.1348H36.3213C36.6728 32.3071 38.2835 30.9217 40.2124 30.9217C42.1413 30.9217 43.7518 32.3071 44.1035 34.1348H46.045C46.1656 34.1347 46.2813 34.0867 46.3666 34.0015C46.4519 33.9162 46.4999 33.8006 46.5 33.6799ZM45.4058 29.3316V31.2755H46.5V29.3316H45.4058ZM44.4579 24.5469H35.6442C35.4453 24.5469 35.2545 24.4679 35.1139 24.3272C34.9732 24.1866 34.8942 23.9958 34.8942 23.7969V17.5272C34.8942 17.3283 34.9732 17.1375 35.1139 16.9969C35.2545 16.8562 35.4453 16.7772 35.6442 16.7772H41.7952C41.9424 16.7772 42.0863 16.8205 42.209 16.9018C42.3318 16.983 42.4279 17.0986 42.4854 17.234L45.1481 23.5038C45.1965 23.6178 45.216 23.742 45.2047 23.8654C45.1933 23.9888 45.1516 24.1074 45.0833 24.2108C45.0149 24.3141 44.922 24.3989 44.8129 24.4575C44.7038 24.5162 44.5818 24.5469 44.4579 24.5469ZM43.3246 23.0469L41.2989 18.2772H36.3943V23.0469H43.3246ZM17.0999 33.7901C16.4948 33.7901 16.0052 34.2799 16.0052 34.8848C16.0052 35.4898 16.4949 35.9795 17.0999 35.9795C17.705 35.9795 18.1947 35.4899 18.1947 34.8848C18.1947 34.2798 17.7051 33.7901 17.0999 33.7901ZM40.2123 33.7901C39.6072 33.7901 39.1176 34.2799 39.1176 34.8848C39.1176 35.4898 39.6072 35.9795 40.2123 35.9795C40.8173 35.9795 41.3071 35.4899 41.3071 34.8848C41.3071 34.2798 40.8173 33.7901 40.2123 33.7901Z" fill="#005BAB"/>
<path fill-rule="evenodd" clip-rule="evenodd" d="M16.0174 26.3852H2.93147C2.73256 26.3852 2.54179 26.3062 2.40114 26.1655C2.26049 26.0248 2.18147 25.8341 2.18147 25.6352C2.18147 25.4363 2.26049 25.2455 2.40114 25.1048C2.54179 24.9642 2.73256 24.8852 2.93147 24.8852H16.0174C16.2163 24.8852 16.4071 24.9642 16.5477 25.1048C16.6884 25.2455 16.7674 25.4363 16.7674 25.6352C16.7674 25.8341 16.6884 26.0248 16.5477 26.1655C16.4071 26.3062 16.2163 26.3852 16.0174 26.3852ZM14.5859 21.3485C14.5859 21.1496 14.5069 20.9589 14.3662 20.8182C14.2256 20.6776 14.0348 20.5985 13.8359 20.5985H0.75C0.551088 20.5985 0.360322 20.6776 0.21967 20.8182C0.0790176 20.9589 0 21.1496 0 21.3485C0 21.5475 0.0790176 21.7382 0.21967 21.8789C0.360322 22.0195 0.551088 22.0985 0.75 22.0985H13.8359C14.0348 22.0985 14.2256 22.0195 14.3662 21.8789C14.5069 21.7382 14.5859 21.5475 14.5859 21.3485ZM4.33791 17.8118H17.4237C17.6226 17.8118 17.8134 17.7328 17.954 17.5922C18.0947 17.4515 18.1737 17.2607 18.1737 17.0618C18.1737 16.8629 18.0947 16.6721 17.954 16.5315C17.8134 16.3908 17.6226 16.3118 17.4237 16.3118H4.33791C4.13899 16.3118 3.94823 16.3908 3.80758 16.5315C3.66692 16.6721 3.58791 16.8629 3.58791 17.0618C3.58791 17.2607 3.66692 17.4515 3.80758 17.5922C3.94823 17.7328 4.13899 17.8118 4.33791 17.8118ZM48 24.3966V33.6799C48 34.7578 47.1231 35.6348 46.045 35.6348H44.1035C43.7518 37.4627 42.1413 38.848 40.2124 38.848C38.2835 38.848 36.6729 37.4627 36.3213 35.6348H20.9911C20.6394 37.4627 19.0289 38.848 17.1 38.848C15.1711 38.848 13.5606 37.4627 13.2089 35.6348H9.01284C7.71347 35.6348 6.65625 34.5777 6.65625 33.2782V28.679C6.65625 28.4801 6.73527 28.2894 6.87592 28.1487C7.01657 28.0081 7.20734 27.929 7.40625 27.929C7.60516 27.929 7.79593 28.0081 7.93658 28.1487C8.07723 28.2894 8.15625 28.4801 8.15625 28.679V33.2782C8.15625 33.7505 8.54053 34.1348 9.01284 34.1348H13.2089C13.5605 32.3071 15.1711 30.9217 17.1 30.9217C19.0289 30.9217 20.6394 32.3071 20.9911 34.1348H32.4247V11.5084C32.4247 11.0361 32.0404 10.6519 31.5681 10.6519H9.01284C8.54053 10.6519 8.15625 11.0361 8.15625 11.5084V14.0179C8.15625 14.2168 8.07723 14.4075 7.93658 14.5482C7.79593 14.6888 7.60516 14.7679 7.40625 14.7679C7.20734 14.7679 7.01657 14.6888 6.87592 14.5482C6.73527 14.4075 6.65625 14.2168 6.65625 14.0179V11.5084C6.65625 10.2091 7.71338 9.15186 9.01284 9.15186H31.5681C32.8674 9.15186 33.9247 10.209 33.9247 11.5084V14.3075H42.0527C43.2082 14.3075 44.191 14.9317 44.6176 15.9365L47.8042 23.4398C47.9378 23.7546 48 24.0586 48 24.3966ZM19.5632 34.8848C19.5632 33.5267 18.4582 32.4217 17.1 32.4217C15.7418 32.4217 14.6368 33.5267 14.6368 34.8848C14.6368 36.243 15.7418 37.348 17.1 37.348C18.4582 37.348 19.5632 36.2431 19.5632 34.8848ZM42.6756 34.8848C42.6756 33.5267 41.5705 32.4217 40.2124 32.4217C38.8542 32.4217 37.7492 33.5267 37.7492 34.8848C37.7492 36.243 38.8542 37.348 40.2124 37.348C41.5705 37.348 42.6756 36.2431 42.6756 34.8848ZM46.5 33.6799V32.7755H45.2113C44.4915 32.7755 43.9058 32.1899 43.9058 31.4701V29.1371C43.9058 28.4173 44.4915 27.8316 45.2113 27.8316H46.5V24.3966C46.5 24.2596 46.4785 24.1556 46.4236 24.026L43.237 16.5229C43.0496 16.0817 42.5959 15.8075 42.0527 15.8075H33.9247V34.1348H36.3213C36.6728 32.3071 38.2835 30.9217 40.2124 30.9217C42.1413 30.9217 43.7518 32.3071 44.1035 34.1348H46.045C46.1656 34.1347 46.2813 34.0867 46.3666 34.0015C46.4519 33.9162 46.4999 33.8006 46.5 33.6799ZM45.4058 29.3316V31.2755H46.5V29.3316H45.4058ZM44.4579 24.5469H35.6442C35.4453 24.5469 35.2545 24.4679 35.1139 24.3272C34.9732 24.1866 34.8942 23.9958 34.8942 23.7969V17.5272C34.8942 17.3283 34.9732 17.1375 35.1139 16.9969C35.2545 16.8562 35.4453 16.7772 35.6442 16.7772H41.7952C41.9424 16.7772 42.0863 16.8205 42.209 16.9018C42.3318 16.983 42.4279 17.0986 42.4854 17.234L45.1481 23.5038C45.1965 23.6178 45.216 23.742 45.2047 23.8654C45.1933 23.9888 45.1516 24.1074 45.0833 24.2108C45.0149 24.3141 44.922 24.3989 44.8129 24.4575C44.7038 24.5162 44.5818 24.5469 44.4579 24.5469ZM43.3246 23.0469L41.2989 18.2772H36.3943V23.0469H43.3246ZM17.0999 33.7901C16.4948 33.7901 16.0052 34.2799 16.0052 34.8848C16.0052 35.4898 16.4949 35.9795 17.0999 35.9795C17.705 35.9795 18.1947 35.4899 18.1947 34.8848C18.1947 34.2798 17.7051 33.7901 17.0999 33.7901ZM40.2123 33.7901C39.6072 33.7901 39.1176 34.2799 39.1176 34.8848C39.1176 35.4898 39.6072 35.9795 40.2123 35.9795C40.8173 35.9795 41.3071 35.4899 41.3071 34.8848C41.3071 34.2798 40.8173 33.7901 40.2123 33.7901Z" stroke="#005BAB" stroke-width="0.4" mask="url(#path-1-outside-1_79_936)"/>
</g>
<defs>
<clipPath id="clip0_79_936">
<rect width="48" height="48" fill="white"/>
</clipPath>
</defs>
</svg>
