<svg width="16" height="16" viewBox="0 0 16 16" fill="none" xmlns="http://www.w3.org/2000/svg">
<g clip-path="url(#clip0_79_1536)">
<path fill-rule="evenodd" clip-rule="evenodd" d="M8.17909 15.9543C6.61337 15.9543 5.88576 15.7257 4.62099 14.8114C3.82099 15.84 1.28766 16.6438 1.17718 15.2686C1.17718 14.2362 0.948613 13.3638 0.689565 12.4114C0.380994 11.2381 0.0305176 9.93143 0.0305176 8.0381C0.0305176 3.51619 3.74099 0.114286 8.13719 0.114286C12.5372 0.114286 15.9848 3.68381 15.9848 8.08C15.9919 10.1587 15.174 12.1553 13.7105 13.6316C12.2471 15.1078 10.2578 15.9432 8.17909 15.9543ZM8.24385 4.02286C6.1029 3.91238 4.43433 5.39429 4.0648 7.7181C3.76004 9.64191 4.30099 11.9848 4.76195 12.1067C4.9829 12.16 5.53909 11.7105 5.88576 11.3638C6.45899 11.7598 7.12651 11.9977 7.82099 12.0533C8.88738 12.1046 9.93133 11.7355 10.7285 11.0253C11.5256 10.3151 12.0122 9.32046 12.0839 8.25524C12.1255 7.18782 11.7465 6.14669 11.0284 5.35587C10.3102 4.56505 9.31034 4.08775 8.24385 4.02667V4.02286Z" fill="white"/>
</g>
<defs>
<clipPath id="clip0_79_1536">
<rect width="16" height="16" fill="white"/>
</clipPath>
</defs>
</svg>
