<svg width="48" height="48" viewBox="0 0 48 48" fill="none" xmlns="http://www.w3.org/2000/svg">
<path d="M33.5427 24.002L45.6507 11.894C47.0937 10.451 47.0907 8.03001 45.6507 6.59101L41.4097 2.34901C39.9927 0.932014 37.5227 0.931014 36.1067 2.34901L23.9967 14.457L11.8897 2.35001C10.4747 0.934014 8.00375 0.935014 6.58975 2.35001L2.34974 6.59001C0.912745 8.02601 0.909745 10.45 2.34974 11.89L14.4567 23.997L6.64074 31.813C6.56599 31.888 6.50804 31.978 6.47075 32.077L1.29774 45.734C1.08274 46.301 1.66175 46.933 2.26475 46.701L15.9207 41.529C16.0207 41.492 16.1107 41.434 16.1857 41.359L24.0007 33.543L36.1097 45.65C37.5497 47.09 39.9737 47.087 41.4097 45.65L45.6497 41.41C47.0647 39.996 47.0657 37.525 45.6497 36.11L33.5427 24.002ZM37.1657 3.41001C38.0157 2.56001 39.4977 2.56001 40.3487 3.41001L44.5907 7.65201C45.4597 8.52201 45.4597 9.96601 44.5907 10.834L42.2927 13.133L34.8677 5.70801L37.1657 3.41001ZM33.8077 6.76901L41.2317 14.193L39.4637 15.961L32.0397 8.53701L33.8077 6.76901ZM3.40974 10.83C2.98839 10.4081 2.75172 9.83627 2.75172 9.24001C2.75172 8.64376 2.98839 8.07189 3.40974 7.65001L7.64974 3.41001C8.07188 2.98915 8.64365 2.75282 9.23974 2.75282C9.83583 2.75282 10.4076 2.98915 10.8297 3.41001L13.0367 5.61801L10.0347 8.62102C9.35175 9.30301 10.4097 10.366 11.0947 9.68101L14.0977 6.67801L16.5727 9.15402L11.4487 14.277C10.7737 14.952 11.8227 16.024 12.5087 15.337C12.5367 15.311 16.2307 11.617 17.6337 10.214L20.1077 12.689L17.1057 15.691C16.4377 16.359 17.4917 17.427 18.1657 16.752L21.1687 13.75L22.9367 15.517L15.5167 22.937L3.40974 10.83ZM7.81574 32.759L30.9787 9.59601L32.7467 11.364L9.68974 34.42H7.18674L7.81574 32.759ZM3.28974 44.709L4.48674 41.549L6.44974 43.512L3.28974 44.709ZM12.0797 41.38L7.98974 42.93L5.06975 40.01L6.61874 35.92H9.24974V38C9.24974 38.414 9.58575 38.75 9.99975 38.75H12.0797V41.38ZM10.7487 37.25V35.482L33.8057 12.425L35.5737 14.193L12.5177 37.25H10.7487ZM15.2387 40.184L13.5787 40.812V38.31L36.6347 15.254L38.4027 17.022L15.2387 40.184ZM44.5887 40.35L40.3487 44.59C39.9269 45.0114 39.355 45.248 38.7587 45.248C38.1625 45.248 37.5906 45.0114 37.1687 44.59L25.0627 32.482L32.4827 25.063L34.2497 26.831L31.2477 29.834C30.5727 30.508 31.6407 31.562 32.3077 30.894L35.3107 27.892L37.7857 30.366L32.6617 35.491C31.9757 36.177 33.0477 37.226 33.7217 36.551L38.8457 31.427L41.3217 33.902L38.3187 36.905C37.6337 37.59 38.6967 38.648 39.3787 37.965L42.3817 34.963L44.5897 37.17C45.0106 37.5922 45.2469 38.1639 45.2469 38.76C45.2469 39.3561 45.0096 39.9279 44.5887 40.35Z" fill="#005BAB"/>
</svg>
