<svg width="24" height="24" viewBox="0 0 24 24" fill="none" xmlns="http://www.w3.org/2000/svg">
<path d="M15.952 14.8307L15.4464 15.3636C15.4464 15.3636 14.2431 16.6295 10.9598 13.173C7.67647 9.71651 8.87979 8.45062 8.87979 8.45062L9.19757 8.11414C9.98312 7.28825 10.0576 5.96118 9.37201 4.99177L7.97202 3.01175C7.12314 1.81174 5.48426 1.65291 4.51205 2.67645L2.76761 4.51176C2.2865 5.02 1.96428 5.67648 2.00317 6.40589C2.10317 8.27297 2.90094 12.2883 7.3498 16.973C12.0687 21.9401 16.4964 22.1378 18.3064 21.959C18.8797 21.9025 19.3775 21.5943 19.7786 21.1707L21.3564 19.5095C22.423 18.3883 22.123 16.4648 20.7586 15.6801L18.6364 14.4577C17.7408 13.9436 16.652 14.0942 15.952 14.8307Z" fill="white"/>
</svg>
